#N canvas -61 443 450 430 8;
#X obj 26 23 osc~ 440;
#X obj 26 143 earplug~;
#X obj 108 83 else/count 180;
#X obj 108 60 metro 10;
#X obj 109 4 loadbang;
#X obj 26 164 dac~, f 8;
#X obj 108 125 nbx 5 14 -1e+37 1e+37 0 0 empty empty empty 0 -8 0 8 #fcfcfc #000000 #000000 0 256;
#X obj 162 2 bng 15 250 50 0 empty empty empty 0 -8 0 8 #fcfcfc #000000 #000000;
#X msg 154 59 alt 1;
#X obj 108 104 + 90;
#X connect 0 0 1 0;
#X connect 1 0 5 0;
#X connect 1 1 5 1;
#X connect 2 0 9 0;
#X connect 3 0 2 0;
#X connect 4 0 3 0;
#X connect 4 0 8 0;
#X connect 6 0 1 1;
#X connect 7 0 3 0;
#X connect 8 0 2 0;
#X connect 9 0 6 0;
