#N canvas 368 32 1450 965 8;
#X declare -path Libs;
#X obj 11 317 t b b;
#X obj 33 336 s \$0-link;
#X obj 11 355 s \$0-mass;
#N canvas 0 69 1920 977 strings 0;
#X obj 283 366 outlet;
#X obj 304 214 vsl 15 100 0 127 0 0 empty empty empty 0 -8 0 8 #fcfcfc #000000 #000000 0 1;
#X obj 325 214 vsl 15 100 0 127 0 0 empty empty empty 0 -8 0 8 #fcfcfc #000000 #000000 0 1;
#X obj 346 214 vsl 15 100 0 127 0 0 empty empty empty 0 -8 0 8 #fcfcfc #000000 #000000 0 1;
#X obj 367 214 vsl 15 100 0 127 0 0 empty empty empty 0 -8 0 8 #fcfcfc #000000 #000000 0 1;
#X obj 388 214 vsl 15 100 0 127 0 0 empty empty empty 0 -8 0 8 #fcfcfc #000000 #000000 0 1;
#X obj 409 214 vsl 15 100 0 127 0 0 empty empty empty 0 -8 0 8 #fcfcfc #000000 #000000 0 1;
#X obj 39 208 vsl 15 100 5 127 1 0 empty empty empty 0 -8 0 8 #fcfcfc #000000 #000000 0 1;
#X obj 428 214 vsl 15 100 0 127 0 0 empty empty empty 0 -8 0 8 #fcfcfc #000000 #000000 0 1;
#X obj 235 191 inlet;
#X obj 10 163 pmpd/link \$0-link 0 0.4 1;
#X obj 147 163 pmpd/link \$0-link 3 0.9 0.9;
#X obj 285 157 pmpd/link \$0-link 3 0.9 0.9;
#X obj 426 192 pmpd/link \$0-link 3 0.9 0.9;
#X obj 567 201 pmpd/link \$0-link 3 0.9 0.9;
#X obj 705 205 pmpd/link \$0-link 3 0.9 0.9;
#X obj 846 183 pmpd/link \$0-link 3 0.9 0.9;
#X obj 426 139 pmpd/mass \$0-mass 30;
#X obj 286 138 pmpd/mass \$0-mass 20;
#X obj 148 139 pmpd/mass \$0-mass 30;
#X obj 846 124 pmpd/mass \$0-mass 40;
#X obj 705 110 pmpd/mass \$0-mass 30;
#X obj 567 139 pmpd/mass \$0-mass 20;
#X obj 1037 226 pmpd/mass \$0-mass 30;
#X obj 1020 164 pmpd/link \$0-link 0 1 1;
#X obj 428 324 t b f;
#X obj 283 345 pack f f f f f f f f, f 30;
#X msg 150 61 setXmin 0 \, setXmax 127;
#X obj 161 20 loadbang;
#X obj 155 190 r random_value;
#X obj 270 194 loadbang;
#X msg 270 215 0;
#X connect 1 0 26 1;
#X connect 2 0 26 2;
#X connect 3 0 26 3;
#X connect 4 0 26 4;
#X connect 5 0 26 5;
#X connect 6 0 26 6;
#X connect 7 0 10 0;
#X connect 7 0 26 0;
#X connect 8 0 25 0;
#X connect 9 0 7 0;
#X connect 10 1 19 0;
#X connect 11 0 19 0;
#X connect 11 1 18 0;
#X connect 12 0 18 0;
#X connect 12 1 17 0;
#X connect 13 0 17 0;
#X connect 13 1 22 0;
#X connect 14 0 22 0;
#X connect 14 1 21 0;
#X connect 15 0 21 0;
#X connect 15 1 20 0;
#X connect 16 0 20 0;
#X connect 16 1 23 0;
#X connect 17 0 3 0;
#X connect 17 0 12 1;
#X connect 17 0 13 0;
#X connect 18 0 2 0;
#X connect 18 0 11 1;
#X connect 18 0 12 0;
#X connect 19 0 1 0;
#X connect 19 0 10 1;
#X connect 19 0 11 0;
#X connect 20 0 6 0;
#X connect 20 0 15 1;
#X connect 20 0 16 0;
#X connect 21 0 5 0;
#X connect 21 0 14 1;
#X connect 21 0 15 0;
#X connect 22 0 4 0;
#X connect 22 0 13 1;
#X connect 22 0 14 0;
#X connect 23 0 8 0;
#X connect 23 0 16 1;
#X connect 23 0 24 0;
#X connect 24 0 23 0;
#X connect 25 0 26 0;
#X connect 25 1 26 7;
#X connect 26 0 0 0;
#X connect 27 0 19 0;
#X connect 27 0 18 0;
#X connect 27 0 20 0;
#X connect 27 0 22 0;
#X connect 27 0 21 0;
#X connect 27 0 17 0;
#X connect 27 0 23 0;
#X connect 28 0 27 0;
#X connect 29 0 7 0;
#X connect 30 0 31 0;
#X connect 31 0 7 0;
#X restore 293 170 pd strings;
#X obj 11 298 metro 10, f 16;
#X obj 293 154 nbx 5 14 -1e+37 1e+37 0 0 empty empty empty 0 -8 0 8 #fcfcfc #000000 #000000 0 256;
#X obj 205 149 - 10;
#X obj 88 194 pack 0 f, f 21;
#X msg 88 217 \$1 \$2;
#X obj 88 234 line, f 18;
#X obj 293 439 dac~, f 24;
#X obj 293 421 *~ 1, f 9;
#X obj 410 421 *~ 1, f 9;
#X obj 3 21 loadbang;
#X msg 3 42 \; pd dsp 1;
#X obj 3 2 declare -path Libs;
#X obj 293 189 else/iterate;
#X obj 293 210 list prepend next string;
#X obj 293 235 list trim;
#X msg 227 189 all time \$1;
#X obj 266 91 + 5000;
#X obj 266 109 s TIME;
#X obj 205 128 r TIME;
#X obj 205 170 t f f;
#X obj 234 13 r NEW-FORCE-VALUE;
#N canvas 0 32 1920 982 HEART 1;
#X obj 292 207 tabwrite globaltime;
#X obj 10 33 bng 15 250 50 0 empty empty empty 0 -8 0 8 #fcfcfc #000000 #000000;
#X obj 292 95 b;
#X obj 292 169 t f b, f 19;
#X obj 10 51 t b b, f 57;
#X obj 366 7 text define TIMES;
#X obj 292 132 + 100;
#X obj 120 435 text set TIMES;
#X obj 120 308 tabread globaltime;
#X obj 3 217 t b f, f 24;
#X obj 4 435 text sequence TIMES -g;
#X msg 3 238 line 0 \, auto;
#X obj 479 52 r NEW-FORCE-VALUE;
#N canvas 1076 143 731 819 hann 0;
#X msg 108 162 resize \$1;
#X obj 4 105 trigger float float;
#X obj 4 135 else/loop;
#X obj 179 93 v twopi;
#X msg 179 25 1;
#X obj 179 47 atan;
#X obj 179 69 * 8;
#X obj 179 2 loadbang;
#X obj 5 253 inlet;
#X obj 5 295 outlet;
#X msg 4 76 17;
#X obj 99 9 r N_OF_MOMENTS;
#X obj 4 11 r GLOBAL_LOADBANG;
#X msg 99 30 set \$1;
#X obj 108 180 array define -yrange 0 100 hann2_\$0 100;
#X obj 4 177 expr hann2_\$0[$f1] = ((cos(twopi*$f1/$f2) * -0.5 + 0.5) * 80 + 40), f 19;
#X obj 5 274 tabread hann2_\$0;
#X connect 0 0 14 0;
#X connect 1 0 2 0;
#X connect 1 1 0 0;
#X connect 1 1 15 1;
#X connect 2 0 15 0;
#X connect 4 0 5 0;
#X connect 5 0 6 0;
#X connect 6 0 3 0;
#X connect 7 0 4 0;
#X connect 8 0 16 0;
#X connect 10 0 1 0;
#X connect 11 0 13 0;
#X connect 12 0 10 0;
#X connect 13 0 10 0;
#X connect 16 0 9 0;
#X restore 226 308 pd hann;
#X obj 36 266 loadbang;
#X obj 36 308 symbol;
#X msg 36 287 NEW-FORCE-VALUE;
#X obj 479 126 unpack f f f f f f f, f 63;
#X obj 565 192 s GLOBAL_PROBABILITY_TO_PLAY;
#X obj 120 329 t f f, f 18;
#X obj 596 215 r FINAL_PIECE;
#X obj 479 235 expr if($f1 > $f2 \, 1 \, 0);
#X text 429 34 TIME PROBABILITY_TO_PLAY;
#X obj 479 256 sel 1;
#X obj 479 277 f, f 9;
#X obj 479 319 line, f 18;
#X msg 479 298 0 60000;
#X obj 513 144 t f f f, f 11;
#X obj 479 340 nbx 5 14 -1e+37 1e+37 0 0 empty empty empty 0 -8 0 8 #fcfcfc #000000 #000000 0 256;
#X obj 479 165 +, f 8;
#X obj 479 187 int;
#X obj 479 208 nbx 8 14 -1e+37 1e+37 0 0 empty empty empty 0 -8 0 8 #fcfcfc #000000 #000000 0 256;
#X obj 479 358 s GLOBAL_PROBABILITY_TO_PLAY;
#X obj 583 173 s STRING_VALUE;
#N canvas 176 32 926 948 easeOutBounce 0;
#X obj 4 336 inlet;
#X obj 4 449 outlet;
#X msg 345 161 7.5625;
#X text 239 161 d1;
#X text 381 119 n1;
#X msg 201 161 2.75;
#X text 106 4 $f1 = x $f2 = d1 $f3 = n1;
#X obj 58 126 t f f, f 13;
#X obj 58 147 + 1;
#X obj 201 117 loadbang;
#X obj 36 4 loadbang;
#X obj 58 264 tabwrite easeOutBounce_\$0;
#X obj 4 353 tabread easeOutBounce_\$0;
#X obj 130 353 array max easeOutBounce_\$0;
#X obj 130 318 bng 15 250 50 0 empty empty empty 0 -8 0 8 #fcfcfc #000000 #000000;
#X obj 130 374 nbx 5 14 -1e+37 1e+37 0 0 empty empty empty 0 -8 0 8 #fcfcfc #000000 #000000 0 256;
#X obj 36 32 t b b;
#X obj 4 407 /;
#X obj 36 266 b;
#X obj 8 3 bng 15 250 50 0 empty empty empty 0 -8 0 8 #fcfcfc #000000 #000000;
#X obj 58 201 expr if($f1 < (1 / $f2) \, ($f3 * $f1 * $f1) \, if($f1 < (2 / $f2) \, $f3 * ($f1 - 1.5 / $f2) * $f1 + 0.75 \, if($f1 < 2.5 / $f2 \, $f3 * ($f1 - 2.25 / $f2) * $f1 + 0.9375 \, $f3 * ($f1 - (2.626 / $f2)) * $f1 + 0.984375) ));
#X obj 4 428 * 100000;
#X obj 58 105 else/loop 50;
#X obj 58 170 / 50;
#X obj 115 75 r N_OF_MOMENTS;
#X obj 83 40 array define -yrange -0 2 easeOutBounce_\$0 100;
#X obj 82 146 r N_OF_MOMENTS;
#X connect 0 0 12 0;
#X connect 2 0 20 2;
#X connect 5 0 20 1;
#X connect 7 0 8 0;
#X connect 7 1 11 1;
#X connect 8 0 23 0;
#X connect 9 0 5 0;
#X connect 9 0 2 0;
#X connect 10 0 16 0;
#X connect 12 0 17 0;
#X connect 13 0 15 0;
#X connect 14 0 13 0;
#X connect 15 0 17 1;
#X connect 16 0 18 0;
#X connect 16 1 22 0;
#X connect 17 0 21 0;
#X connect 18 0 14 0;
#X connect 19 0 16 0;
#X connect 20 0 11 0;
#X connect 21 0 1 0;
#X connect 22 0 7 0;
#X connect 23 0 20 0;
#X connect 24 0 22 1;
#X connect 26 0 23 1;
#X restore 314 317 pd easeOutBounce;
#X obj 10 7 r GLOBAL_LOADBANG;
#X obj 729 234 s RESOLUTION;
#X obj 729 207 nbx 5 14 -1e+37 1e+37 0 0 empty empty empty 0 -8 0 8 #fcfcfc #000000 #000000 0 256;
#X obj 292 77 else/loop 50;
#X obj 3 196 else/loop 50;
#X obj 384 188 else/count 49;
#X obj 654 257 nbx 7 14 -1e+37 1e+37 0 0 empty empty empty 0 -8 0 8 #fcfcfc #000000 #000000 0 256;
#X obj 654 295 line, f 9;
#X obj 675 334 s ui_totalDuration;
#X obj 653 378 bng 15 250 50 0 empty empty empty 0 -8 0 8 #fcfcfc #000000 #000000;
#X obj 653 334 int;
#X msg 654 274 0 \, 100 \$1;
#X obj 653 357 sel 100;
#X obj 653 442 s FADEOUT_END;
#X msg 653 398 1 \, 0 20000;
#X obj 479 88 t a b;
#X obj 736 364 loadbang;
#X msg 736 385 1;
#X obj 675 317 nbx 5 14 -1e+37 1e+37 0 0 empty empty empty 0 -8 0 8 #fcfcfc #000000 #000000 0 256;
#X obj 653 419 line;
#X obj 143 7 array define -yrange 0 50000 globaltime 100;
#X obj 349 43 r N_OF_MOMENTS;
#X obj 393 148 r N_OF_MOMENTS;
#X obj 393 169 - 1;
#X obj 3 111 r N_OF_MOMENTS;
#X obj 292 113 expr random(0 \, 50000);
#N canvas 541 39 1258 896 EVENT_NUMBER 0;
#X obj 11 6 inlet;
#X obj 41 188 nbx 9 14 -1e+37 1e+37 0 0 empty empty empty 0 -8 0 8 #fcfcfc #000000 #000000 0 256;
#X obj 41 82 else/loop 100;
#X obj 54 1 bng 15 250 50 0 empty empty empty 0 -8 0 8 #fcfcfc #000000 #000000;
#X obj 41 123 tabread globaltime;
#X obj 41 144 +;
#X obj 41 165 int;
#X msg 11 84 0;
#X obj 94 245 else/spread 1;
#X obj 158 199 - 1;
#X obj 41 285 / 1000;
#X obj 41 306 / 60;
#X obj 41 327 nbx 5 14 -1e+37 1e+37 0 0 empty empty empty 0 -8 0 8 #fcfcfc #000000 #000000 0 256;
#X obj 157 362 +;
#X obj 157 383 t b f;
#X msg 157 404 0;
#X obj 157 421 tabwrite globaltime;
#X obj 41 103 t f f f, f 65;
#X obj 363 158 sel 99;
#X obj 363 196 array sum globaltime;
#X obj 363 217 nbx 9 14 -1e+37 1e+37 0 0 empty empty empty 0 -8 0 8 #fcfcfc #000000 #000000 0 256;
#X obj 363 250 / 1000;
#X obj 363 271 / 60;
#X obj 363 292 nbx 5 14 -1e+37 1e+37 0 0 empty empty empty 0 -8 0 8 #fcfcfc #000000 #000000 0 256;
#X obj 94 266 nbx 5 14 -1e+37 1e+37 0 0 empty empty empty 0 -8 0 8 #fcfcfc #000000 #000000 0 256;
#X obj 156 269 spigot;
#X msg 232 222 1;
#X obj 11 27 t b b b;
#X obj 156 295 t b f;
#X msg 200 317 0;
#X obj 415 104 bng 15 250 50 0 empty empty empty 0 -8 0 8 #fcfcfc #000000 #000000;
#X obj 157 341 else/loop 100;
#X obj 409 252 s FINAL_PIECE;
#X obj 76 383 s N_OF_MOMENTS;
#X obj 157 319 t f b f;
#X obj 94 222 expr if($f1 > $f3 \, $f2 \, 0);
#X obj 225 136 loadbang;
#X obj 225 157 expr random(3 \, 9);
#X obj 225 178 * 60;
#X obj 225 199 * 1000;
#X obj 281 231 nbx 9 14 -1e+37 1e+37 0 0 empty empty empty 0 -8 0 8 #fcfcfc #000000 #000000 0 256;
#X obj 293 130 bng 15 250 50 0 empty empty empty 0 -8 0 8 #fcfcfc #000000 #000000;
#X connect 0 0 27 0;
#X connect 1 0 10 0;
#X connect 1 0 35 0;
#X connect 2 0 17 0;
#X connect 3 0 27 0;
#X connect 4 0 5 0;
#X connect 5 0 6 0;
#X connect 6 0 5 1;
#X connect 6 0 1 0;
#X connect 7 0 5 1;
#X connect 8 0 24 0;
#X connect 8 1 25 0;
#X connect 9 0 35 1;
#X connect 10 0 11 0;
#X connect 11 0 12 0;
#X connect 13 0 14 0;
#X connect 14 0 15 0;
#X connect 14 1 16 1;
#X connect 15 0 16 0;
#X connect 17 0 4 0;
#X connect 17 1 9 0;
#X connect 17 2 18 0;
#X connect 18 0 19 0;
#X connect 19 0 20 0;
#X connect 20 0 21 0;
#X connect 20 0 32 0;
#X connect 21 0 22 0;
#X connect 22 0 23 0;
#X connect 25 0 28 0;
#X connect 26 0 25 1;
#X connect 27 0 2 0;
#X connect 27 1 7 0;
#X connect 27 2 26 0;
#X connect 28 0 29 0;
#X connect 28 1 34 0;
#X connect 29 0 25 1;
#X connect 30 0 19 0;
#X connect 31 0 13 0;
#X connect 34 0 33 0;
#X connect 34 1 31 0;
#X connect 34 2 13 1;
#X connect 35 0 8 0;
#X connect 36 0 37 0;
#X connect 37 0 38 0;
#X connect 38 0 39 0;
#X connect 39 0 35 2;
#X connect 39 0 40 0;
#X connect 41 0 37 0;
#X restore 10 78 pd EVENT_NUMBER;
#X obj 3 132 t b f;
#X obj 405 99 print EVENT;
#X msg 576 51 0 0 22 177.899;
#X obj 576 24 loadbang;
#N canvas 1076 143 731 819 hann 0;
#X msg 108 162 resize \$1;
#X obj 4 105 trigger float float;
#X obj 4 135 else/loop;
#X obj 179 93 v twopi;
#X msg 179 25 1;
#X obj 179 47 atan;
#X obj 179 69 * 8;
#X obj 179 2 loadbang;
#X obj 5 253 inlet;
#X obj 5 274 tabread hann_\$0;
#X obj 5 295 outlet;
#X msg 4 76 17;
#X obj 99 9 r N_OF_MOMENTS;
#X obj 4 11 r GLOBAL_LOADBANG;
#X msg 97 56 set \$1;
#X obj 4 177 expr hann_\$0[$f1] = ((cos(twopi*$f1/$f2) * -0.5 + 0.5) * 80 + 40), f 19;
#X msg 119 34 60;
#X obj 108 180 array define -yrange 0 200 hann_\$0 100;
#X connect 0 0 17 0;
#X connect 1 0 2 0;
#X connect 1 1 0 0;
#X connect 1 1 15 1;
#X connect 2 0 15 0;
#X connect 4 0 5 0;
#X connect 5 0 6 0;
#X connect 6 0 3 0;
#X connect 7 0 4 0;
#X connect 8 0 9 0;
#X connect 9 0 10 0;
#X connect 11 0 1 0;
#X connect 12 0 14 0;
#X connect 13 0 11 0;
#X connect 14 0 11 0;
#X connect 16 0 14 0;
#X restore 272 318 pd hann;
#X obj 687 159 s DownNote;
#X obj 743 159 s UpNote;
#X obj 120 416 pack f s f f f f f f, f 43;
#X obj 120 288 t f f f f f f f, f 59;
#N canvas 1076 143 731 819 hann 0;
#X msg 150 164 resize \$1;
#X obj 4 105 trigger float float;
#X obj 4 135 else/loop;
#X obj 179 93 v twopi;
#X msg 179 25 1;
#X obj 179 47 atan;
#X obj 179 69 * 8;
#X obj 179 2 loadbang;
#X obj 4 345 inlet;
#X obj 4 387 outlet;
#X obj 99 9 r N_OF_MOMENTS;
#X obj 4 11 r GLOBAL_LOADBANG;
#X msg 99 30 set \$1;
#X obj 150 182 array define -yrange 0 100 hannup_\$0 100;
#X obj 4 366 tabread hannup_\$0;
#X obj 4 216 expr hannup_\$0[$f1] = ((cos(twopi*$f1/$f2) * -0.5 + 0.5) * 40 + 40 * (random(0 \, 50) * 0.01)), f 24;
#X msg 4 76 17;
#X connect 0 0 13 0;
#X connect 1 0 2 0;
#X connect 1 1 0 0;
#X connect 1 1 15 1;
#X connect 2 0 15 0;
#X connect 4 0 5 0;
#X connect 5 0 6 0;
#X connect 6 0 3 0;
#X connect 7 0 4 0;
#X connect 8 0 14 0;
#X connect 10 0 12 0;
#X connect 11 0 16 0;
#X connect 12 0 16 0;
#X connect 14 0 9 0;
#X connect 16 0 1 0;
#X restore 412 338 pd hann;
#X obj 412 359 nbx 5 14 -1e+37 1e+37 0 0 empty empty empty 0 -8 0 8 #fcfcfc #000000 #000000 0 256;
#N canvas 1076 143 731 819 hann 0;
#X msg 150 164 resize \$1;
#X obj 4 105 trigger float float;
#X obj 4 135 else/loop;
#X obj 179 93 v twopi;
#X msg 179 25 1;
#X obj 179 47 atan;
#X obj 179 69 * 8;
#X obj 179 2 loadbang;
#X obj 4 262 inlet;
#X obj 4 387 outlet;
#X obj 99 9 r N_OF_MOMENTS;
#X obj 4 11 r GLOBAL_LOADBANG;
#X msg 99 30 set \$1;
#X obj 150 182 array define -yrange 0 100 hanndown_\$0 100;
#X obj 4 283 tabread hanndown_\$0;
#X obj 4 216 expr hanndown_\$0[$f1] = ((cos(twopi*$f1/$f2) * 0.5 + 0.5) * 40 - 40 * (random(0 \, 50) * 0.01));
#X msg 4 76 17;
#X obj 4 315 else/spread 1;
#X obj 68 342 nbx 5 14 -1e+37 1e+37 0 0 empty empty empty 0 -8 0 8 #fcfcfc #000000 #000000 0 256;
#X obj 143 282 nbx 5 14 -1e+37 1e+37 0 0 empty empty empty 0 -8 0 8 #fcfcfc #000000 #000000 0 256;
#X msg 4 336 1;
#X connect 0 0 13 0;
#X connect 1 0 2 0;
#X connect 1 1 0 0;
#X connect 1 1 15 1;
#X connect 2 0 15 0;
#X connect 4 0 5 0;
#X connect 5 0 6 0;
#X connect 6 0 3 0;
#X connect 7 0 4 0;
#X connect 8 0 14 0;
#X connect 10 0 12 0;
#X connect 11 0 16 0;
#X connect 12 0 16 0;
#X connect 14 0 17 0;
#X connect 16 0 1 0;
#X connect 17 0 20 0;
#X connect 17 1 18 0;
#X connect 18 0 9 0;
#X connect 19 0 17 0;
#X connect 20 0 9 0;
#X restore 362 348 pd hann;
#X obj 362 369 nbx 5 14 -1e+37 1e+37 0 0 empty empty empty 0 -8 0 8 #fcfcfc #000000 #000000 0 256;
#X obj 654 236 + 20000;
#X connect 1 0 4 0;
#X connect 2 0 60 0;
#X connect 3 0 0 0;
#X connect 3 1 40 0;
#X connect 4 0 61 0;
#X connect 4 1 38 0;
#X connect 6 0 3 0;
#X connect 8 0 19 0;
#X connect 9 0 11 0;
#X connect 9 1 70 0;
#X connect 11 0 10 0;
#X connect 12 0 50 0;
#X connect 12 0 63 0;
#X connect 13 0 69 3;
#X connect 14 0 16 0;
#X connect 15 0 69 1;
#X connect 16 0 15 0;
#X connect 17 0 29 0;
#X connect 17 1 27 0;
#X connect 17 2 33 0;
#X connect 17 3 37 0;
#X connect 17 4 67 0;
#X connect 17 5 68 0;
#X connect 19 0 69 0;
#X connect 19 1 69 2;
#X connect 20 0 21 1;
#X connect 20 0 75 0;
#X connect 21 0 23 0;
#X connect 23 0 24 0;
#X connect 24 0 26 0;
#X connect 25 0 28 0;
#X connect 26 0 25 0;
#X connect 27 0 24 1;
#X connect 27 1 25 0;
#X connect 27 2 18 0;
#X connect 28 0 32 0;
#X connect 29 0 30 0;
#X connect 30 0 29 1;
#X connect 30 0 31 0;
#X connect 31 0 21 0;
#X connect 34 0 69 5;
#X connect 35 0 1 0;
#X connect 37 0 36 0;
#X connect 38 0 2 0;
#X connect 39 0 9 0;
#X connect 40 0 0 1;
#X connect 41 0 46 0;
#X connect 42 0 43 0;
#X connect 42 0 45 0;
#X connect 42 0 53 0;
#X connect 44 0 49 0;
#X connect 45 0 47 0;
#X connect 46 0 42 0;
#X connect 47 0 44 0;
#X connect 49 0 54 0;
#X connect 50 0 17 0;
#X connect 51 0 52 0;
#X connect 52 0 48 0;
#X connect 53 0 43 0;
#X connect 54 0 48 0;
#X connect 56 0 38 1;
#X connect 57 0 58 0;
#X connect 58 0 40 1;
#X connect 59 0 62 0;
#X connect 60 0 6 0;
#X connect 62 0 39 0;
#X connect 62 1 39 1;
#X connect 64 0 50 0;
#X connect 65 0 64 0;
#X connect 66 0 69 4;
#X connect 69 0 7 0;
#X connect 70 0 8 0;
#X connect 70 1 7 1;
#X connect 70 2 13 0;
#X connect 70 3 66 0;
#X connect 70 4 34 0;
#X connect 70 5 73 0;
#X connect 70 6 71 0;
#X connect 71 0 72 0;
#X connect 72 0 69 7;
#X connect 73 0 74 0;
#X connect 74 0 69 6;
#X connect 75 0 41 0;
#X restore 2 72 pd HEART;
#X obj 293 132 r STRING_VALUE;
#X obj 341 153 bng 15 250 50 0 empty empty empty 0 -8 0 8 #fcfcfc #000000 #000000;
#X obj 88 176 + 1;
#X obj 103 2 loadbang;
#X obj 103 52 s GLOBAL_LOADBANG;
#X obj 11 129 r GLOBAL_LOADBANG;
#X obj 85 23 bng 15 250 50 0 empty empty empty 0 -8 0 8 #fcfcfc #000000 #000000;
#X obj 234 48 t b b, f 7;
#X obj 458 330 r changeFund;
#X msg 458 365 all fund \$1;
#X obj 531 342 expr random(60 \, 80);
#X obj 531 322 metro 30000;
#X obj 531 363 nbx 3 15 -1e+37 1e+37 0 0 empty empty empty 0 -8 0 8 #fcfcfc #000000 #000000 0 256;
#X obj 583 304 expr random(25000 \, 35000);
#X obj 531 266 loadbang;
#X obj 531 285 t b b, f 11;
#N canvas 852 68 909 846 tempo 0;
#X obj 21 123 sel 1;
#X obj 21 144 random 2;
#X obj 222 102 spigot, f 16;
#X obj 21 7 inlet;
#X msg 146 194 0;
#X obj 83 244 del 500 1 msec;
#X msg 83 265 1;
#X obj 220 387 outlet;
#X obj 21 166 t f b b b, f 38;
#X obj 209 210 nbx 5 14 -1e+37 1e+37 0 0 empty empty empty 0 -8 0 8 #fcfcfc #000000 #000000 0 256;
#X obj 21 46 t b f;
#X obj 209 189 expr random(50 \, 200);
#X obj 22 102 expr if(random(0 \, 10000) > 9990 \, 1 \, 0);
#X obj 354 257 expr random(2 \, 8);
#X obj 21 187 nbx 5 14 -1e+37 1e+37 0 0 empty empty empty 0 -8 0 8 #fcfcfc #000000 #000000 0 256;
#X obj 75 10 bng 15 250 50 0 empty empty empty 0 -8 0 8 #fcfcfc #000000 #000000;
#X obj 222 123 nbx 5 14 -1e+37 1e+37 0 0 empty empty empty 0 -8 0 8 #fcfcfc #000000 #000000 0 256;
#X obj 221 327 spigot;
#X obj 263 278 nbx 5 14 -1e+37 1e+37 0 0 empty empty empty 0 -8 0 8 #fcfcfc #000000 #000000 0 256;
#X obj 267 228 bng 15 250 50 0 empty empty empty 0 -8 0 8 #fcfcfc #000000 #000000;
#X obj 263 257 expr random(0 \, 2);
#X obj 354 217 r GLOBAL_LOADBANG;
#X connect 0 0 1 0;
#X connect 1 0 8 0;
#X connect 2 0 16 0;
#X connect 3 0 10 0;
#X connect 4 0 2 1;
#X connect 5 0 6 0;
#X connect 6 0 2 1;
#X connect 8 0 14 0;
#X connect 8 1 5 0;
#X connect 8 2 4 0;
#X connect 8 3 11 0;
#X connect 10 0 12 0;
#X connect 10 1 2 0;
#X connect 11 0 9 0;
#X connect 11 0 5 1;
#X connect 12 0 0 0;
#X connect 13 0 7 0;
#X connect 15 0 10 0;
#X connect 16 0 17 0;
#X connect 17 0 7 0;
#X connect 18 0 17 1;
#X connect 19 0 20 0;
#X connect 20 0 18 0;
#X connect 21 0 13 0;
#X connect 21 0 20 0;
#X restore 88 254 pd tempo;
#X obj 293 398 clone Libs/string-abs 8, f 24;
#N canvas 120 98 1408 909 IF_STOP 0;
#X obj 19 350 bng 15 250 50 0 empty empty empty 0 -8 0 8 #fcfcfc #000000 #000000;
#X msg 45 304 stop;
#X obj 19 421 s random_value;
#X obj 19 371 expr random(20 \, 127);
#X obj 19 11 r attack1-1;
#X obj 81 11 r attack2-1;
#X obj 143 11 r attack1-2;
#X obj 205 11 r attack2-2;
#X obj 179 77 r attack1-3;
#X obj 240 77 r attack2-3;
#X obj 305 77 r attack1-4;
#X obj 368 77 r attack2-4;
#X obj 225 145 r attack1-5;
#X obj 288 145 r attack2-5;
#X obj 350 145 r attack1-6;
#X obj 411 145 r attack2-6;
#X obj 261 217 r attack1-7;
#X obj 266 235 r attack2-7;
#X obj 273 253 r attack1-8;
#X obj 283 272 r attack2-8;
#X obj 19 286 t b b;
#X obj 19 329 del 4000 1 msec;
#X obj 91 311 expr random(400 \, 3000);
#X obj 100 266 loadbang;
#X obj 100 287 bng 15 250 50 0 empty empty empty 0 -8 0 8 #fcfcfc #000000 #000000;
#X obj 115 337 nbx 5 14 -1e+37 1e+37 0 0 empty empty empty 0 -8 0 8 #fcfcfc #000000 #000000 0 256;
#X connect 0 0 3 0;
#X connect 1 0 21 0;
#X connect 3 0 2 0;
#X connect 4 0 20 0;
#X connect 5 0 20 0;
#X connect 6 0 20 0;
#X connect 7 0 20 0;
#X connect 8 0 20 0;
#X connect 9 0 20 0;
#X connect 10 0 20 0;
#X connect 11 0 20 0;
#X connect 12 0 20 0;
#X connect 13 0 20 0;
#X connect 14 0 20 0;
#X connect 15 0 20 0;
#X connect 16 0 20 0;
#X connect 17 0 20 0;
#X connect 18 0 20 0;
#X connect 19 0 20 0;
#X connect 20 0 21 0;
#X connect 20 1 1 0;
#X connect 21 0 0 0;
#X connect 22 0 21 1;
#X connect 22 0 25 0;
#X connect 23 0 24 0;
#X connect 24 0 22 0;
#X restore 360 189 pd IF_STOP;
#X obj 157 311 else/loop 8;
#X obj 157 332 + 1;
#X msg 157 353 next mynumber \$1;
#N canvas 216 32 1064 640 WEB_GUI_ATTACKS 0;
#X obj 5 40 else/count;
#X obj 5 58 s ui_bang1;
#X obj 5 4 r attack1-1;
#X obj 5 22 t b f, f 12;
#X obj 62 40 s ui_color1;
#X obj 138 40 else/count;
#X obj 138 22 t b f, f 12;
#X obj 138 4 r attack2-1;
#X obj 138 58 s ui_bang2;
#X obj 195 40 s ui_color2;
#X obj 268 39 else/count;
#X obj 268 21 t b f, f 12;
#X obj 394 39 else/count;
#X obj 394 21 t b f, f 12;
#X obj 5 117 else/count;
#X obj 5 99 t b f, f 12;
#X obj 138 117 else/count;
#X obj 138 99 t b f, f 12;
#X obj 268 116 else/count;
#X obj 268 98 t b f, f 12;
#X obj 394 116 else/count;
#X obj 394 98 t b f, f 12;
#X obj 4 195 else/count;
#X obj 4 177 t b f, f 12;
#X obj 137 195 else/count;
#X obj 137 177 t b f, f 12;
#X obj 267 194 else/count;
#X obj 267 176 t b f, f 12;
#X obj 393 194 else/count;
#X obj 393 176 t b f, f 12;
#X obj 4 270 else/count;
#X obj 4 252 t b f, f 12;
#X obj 137 270 else/count;
#X obj 137 252 t b f, f 12;
#X obj 267 269 else/count;
#X obj 267 251 t b f, f 12;
#X obj 393 269 else/count;
#X obj 393 251 t b f, f 12;
#X obj 268 3 r attack1-2;
#X obj 394 3 r attack2-2;
#X obj 5 81 r attack1-3;
#X obj 138 81 r attack2-3;
#X obj 268 80 r attack1-4;
#X obj 394 80 r attack2-4;
#X obj 4 159 r attack1-5;
#X obj 137 159 r attack2-5;
#X obj 267 158 r attack1-6;
#X obj 393 158 r attack2-6;
#X obj 4 234 r attack1-7;
#X obj 137 234 r attack2-7;
#X obj 267 233 r attack1-8;
#X obj 393 233 r attack2-8;
#X obj 268 57 s ui_bang3;
#X obj 325 39 s ui_color3;
#X obj 394 57 s ui_bang4;
#X obj 451 39 s ui_color4;
#X obj 5 135 s ui_bang5;
#X obj 62 117 s ui_color5;
#X obj 138 135 s ui_bang6;
#X obj 195 117 s ui_color6;
#X obj 268 134 s ui_bang7;
#X obj 325 116 s ui_color7;
#X obj 394 134 s ui_bang8;
#X obj 451 116 s ui_color8;
#X obj 4 213 s ui_bang9;
#X obj 61 195 s ui_color9;
#X obj 137 213 s ui_bang10;
#X obj 194 195 s ui_color10;
#X obj 324 194 s ui_color11;
#X obj 267 212 s ui_bang11;
#X obj 393 212 s ui_bang12;
#X obj 450 194 s ui_color12;
#X obj 61 270 s ui_color13;
#X obj 4 288 s ui_bang13;
#X obj 137 288 s ui_bang14;
#X obj 194 270 s ui_color14;
#X obj 324 269 s ui_color15;
#X obj 267 287 s ui_bang15;
#X obj 393 287 s ui_bang16;
#X obj 450 269 s ui_color16;
#X obj 324 57 bng 15 250 50 0 empty empty empty 0 -8 0 8 #fcfcfc #000000 #000000;
#X obj 195 58 bng 15 250 50 0 empty empty empty 0 -8 0 8 #fcfcfc #000000 #000000;
#X obj 62 58 bng 15 250 50 0 empty empty empty 0 -8 0 8 #fcfcfc #000000 #000000;
#X obj 452 57 bng 15 250 50 0 empty empty empty 0 -8 0 8 #fcfcfc #000000 #000000;
#X obj 451 134 bng 15 250 50 0 empty empty empty 0 -8 0 8 #fcfcfc #000000 #000000;
#X obj 326 134 bng 15 250 50 0 empty empty empty 0 -8 0 8 #fcfcfc #000000 #000000;
#X obj 195 135 bng 15 250 50 0 empty empty empty 0 -8 0 8 #fcfcfc #000000 #000000;
#X obj 62 135 bng 15 250 50 0 empty empty empty 0 -8 0 8 #fcfcfc #000000 #000000;
#X obj 61 213 bng 15 250 50 0 empty empty empty 0 -8 0 8 #fcfcfc #000000 #000000;
#X obj 198 213 bng 15 250 50 0 empty empty empty 0 -8 0 8 #fcfcfc #000000 #000000;
#X obj 328 212 bng 15 250 50 0 empty empty empty 0 -8 0 8 #fcfcfc #000000 #000000;
#X obj 454 212 bng 15 250 50 0 empty empty empty 0 -8 0 8 #fcfcfc #000000 #000000;
#X obj 455 287 bng 15 250 50 0 empty empty empty 0 -8 0 8 #fcfcfc #000000 #000000;
#X obj 329 287 bng 15 250 50 0 empty empty empty 0 -8 0 8 #fcfcfc #000000 #000000;
#X obj 198 288 bng 15 250 50 0 empty empty empty 0 -8 0 8 #fcfcfc #000000 #000000;
#X obj 66 288 bng 15 250 50 0 empty empty empty 0 -8 0 8 #fcfcfc #000000 #000000;
#X connect 0 0 1 0;
#X connect 2 0 3 0;
#X connect 2 0 82 0;
#X connect 3 0 0 0;
#X connect 3 1 4 0;
#X connect 5 0 8 0;
#X connect 6 0 5 0;
#X connect 6 1 9 0;
#X connect 7 0 6 0;
#X connect 7 0 81 0;
#X connect 10 0 52 0;
#X connect 11 0 10 0;
#X connect 11 1 53 0;
#X connect 12 0 54 0;
#X connect 13 0 12 0;
#X connect 13 1 55 0;
#X connect 14 0 56 0;
#X connect 15 0 14 0;
#X connect 15 1 57 0;
#X connect 16 0 58 0;
#X connect 17 0 16 0;
#X connect 17 1 59 0;
#X connect 18 0 60 0;
#X connect 19 0 18 0;
#X connect 19 1 61 0;
#X connect 20 0 62 0;
#X connect 21 0 20 0;
#X connect 21 1 63 0;
#X connect 22 0 64 0;
#X connect 23 0 22 0;
#X connect 23 1 65 0;
#X connect 24 0 66 0;
#X connect 25 0 24 0;
#X connect 25 1 67 0;
#X connect 26 0 69 0;
#X connect 27 0 26 0;
#X connect 27 1 68 0;
#X connect 28 0 70 0;
#X connect 29 0 28 0;
#X connect 29 1 71 0;
#X connect 30 0 73 0;
#X connect 31 0 30 0;
#X connect 31 1 72 0;
#X connect 32 0 74 0;
#X connect 33 0 32 0;
#X connect 33 1 75 0;
#X connect 34 0 77 0;
#X connect 35 0 34 0;
#X connect 35 1 76 0;
#X connect 36 0 78 0;
#X connect 37 0 36 0;
#X connect 37 1 79 0;
#X connect 38 0 11 0;
#X connect 38 0 80 0;
#X connect 39 0 13 0;
#X connect 39 0 83 0;
#X connect 40 0 15 0;
#X connect 40 0 87 0;
#X connect 41 0 17 0;
#X connect 41 0 86 0;
#X connect 42 0 19 0;
#X connect 42 0 85 0;
#X connect 43 0 21 0;
#X connect 43 0 84 0;
#X connect 44 0 23 0;
#X connect 44 0 88 0;
#X connect 45 0 25 0;
#X connect 45 0 89 0;
#X connect 46 0 27 0;
#X connect 46 0 90 0;
#X connect 47 0 29 0;
#X connect 47 0 91 0;
#X connect 48 0 31 0;
#X connect 48 0 95 0;
#X connect 49 0 33 0;
#X connect 49 0 94 0;
#X connect 50 0 35 0;
#X connect 50 0 93 0;
#X connect 51 0 37 0;
#X connect 51 0 92 0;
#X restore 326 13 pd WEB_GUI_ATTACKS;
#X obj 157 287 r GLOBAL_LOADBANG;
#X obj 266 70 expr random(0 \, 15000);
#X obj 293 359 spigot;
#X obj 497 157 r FADEOUT_END;
#X obj 293 275 t a b;
#X obj 497 191 * 100;
#X obj 320 320 nbx 5 14 -1e+37 1e+37 0 0 empty empty empty 0 -8 0 8 #fcfcfc #000000 #000000 0 256;
#X obj 350 274 bng 15 250 50 0 empty empty empty 0 -8 0 8 #fcfcfc #000000 #000000;
#X obj 531 191 nbx 5 14 -1e+37 1e+37 0 0 empty empty empty 0 -8 0 8 #fcfcfc #000000 #000000 0 256;
#X obj 320 299 expr if(random(0 \, 100) >= $f2 \, 0 \, 1);
#X obj 88 155 expr random(0 \, $f2);
#X obj 70 85 expr random(5 \, 15);
#X obj 70 106 nbx 5 14 -1e+37 1e+37 0 0 empty empty empty 0 -8 0 8 #fcfcfc #000000 #000000 0 256;
#X obj 70 52 bng 15 250 50 0 empty empty empty 0 -8 0 8 #fcfcfc #000000 #000000;
#X obj 103 23 del 1 30 msec;
#X obj 88 275 nbx 5 14 -1e+37 1e+37 0 0 empty empty empty 0 -8 0 8 #fcfcfc #000000 #000000 0 256;
#X obj 138 287 bng 15 250 50 0 empty empty empty 0 -8 0 8 #fcfcfc #000000 #000000;
#X obj 501 51 s DownNote;
#X obj 558 51 s UpNote;
#X msg 558 30 30;
#X msg 501 31 1;
#X obj 501 5 loadbang;
#X obj 413 124 s FUNDAMENTAL_GERAL;
#X obj 413 95 expr random(60 \, 72);
#X obj 413 70 metro 180000;
#X obj 518 95 expr random(60000 \, 520000);
#X obj 412 50 bng 15 250 50 0 empty empty empty 0 -8 0 8 #fcfcfc #000000 #000000;
#X obj 382 145 nbx 5 14 -1e+37 1e+37 0 0 empty empty empty 0 -8 0 8 #fcfcfc #000000 #000000 0 256;
#X obj 39 406 r DownNote;
#X obj 95 406 r UpNote;
#X obj 39 427 nbx 5 14 -1e+37 1e+37 0 0 empty empty empty 0 -8 0 8 #fcfcfc #000000 #000000 0 256;
#X obj 95 427 nbx 5 14 -1e+37 1e+37 0 0 empty empty empty 0 -8 0 8 #fcfcfc #000000 #000000 0 256;
#X connect 0 0 2 0;
#X connect 0 1 1 0;
#X connect 3 0 16 0;
#X connect 4 0 0 0;
#X connect 5 0 3 0;
#X connect 6 0 23 0;
#X connect 7 0 8 0;
#X connect 8 0 9 0;
#X connect 9 0 42 0;
#X connect 11 0 10 0;
#X connect 12 0 10 1;
#X connect 13 0 14 0;
#X connect 16 0 17 0;
#X connect 17 0 18 0;
#X connect 18 0 53 0;
#X connect 19 0 43 0;
#X connect 20 0 21 0;
#X connect 22 0 6 0;
#X connect 23 0 7 1;
#X connect 23 1 19 0;
#X connect 24 0 33 0;
#X connect 26 0 5 0;
#X connect 26 0 27 0;
#X connect 28 0 7 0;
#X connect 29 0 63 0;
#X connect 31 0 4 0;
#X connect 32 0 30 0;
#X connect 33 0 59 0;
#X connect 33 1 50 0;
#X connect 34 0 35 0;
#X connect 35 0 43 0;
#X connect 36 0 35 0;
#X connect 36 0 38 0;
#X connect 37 0 36 0;
#X connect 39 0 37 1;
#X connect 40 0 41 0;
#X connect 41 0 37 0;
#X connect 41 1 39 0;
#X connect 42 0 64 0;
#X connect 43 0 11 0;
#X connect 43 1 12 0;
#X connect 45 0 46 0;
#X connect 46 0 47 0;
#X connect 47 0 43 0;
#X connect 49 0 45 0;
#X connect 50 0 20 0;
#X connect 51 0 43 0;
#X connect 52 0 54 0;
#X connect 52 0 57 0;
#X connect 53 0 51 0;
#X connect 53 1 58 0;
#X connect 54 0 58 1;
#X connect 55 0 51 1;
#X connect 56 0 58 0;
#X connect 58 0 55 0;
#X connect 59 0 28 0;
#X connect 60 0 59 1;
#X connect 60 0 61 0;
#X connect 62 0 60 0;
#X connect 63 0 30 0;
#X connect 63 0 60 0;
#X connect 64 0 4 1;
#X connect 65 0 45 0;
#X connect 68 0 67 0;
#X connect 69 0 66 0;
#X connect 70 0 69 0;
#X connect 70 0 68 0;
#X connect 70 0 75 0;
#X connect 72 0 71 0;
#X connect 72 0 76 0;
#X connect 73 0 72 0;
#X connect 73 0 74 0;
#X connect 74 0 73 1;
#X connect 75 0 73 0;
#X connect 77 0 79 0;
#X connect 78 0 80 0;
