#N canvas 128 -21 1440 966 8;
#X obj 122 201 f, f 8;
#X obj 5 109 int;
#X obj 5 152 change;
#X obj 5 308 outlet~;
#X obj 5 4 inlet;
#X obj 5 172 t f f b, f 24;
#X obj 5 282 earplug~, f 46;
#X obj 232 304 outlet~;
#X obj 733 74 metro;
#X obj 733 5 loadbang;
#X msg 331 369 decay \$1;
#X obj 331 391 s decay-\$0;
#X obj 331 307 list;
#X obj 331 347 line, f 13;
#X msg 331 327 \$2 \$1;
#X obj 383 280 * 0.01;
#X obj 383 240 bng 15 250 50 0 empty empty empty 0 -8 0 8 #fcfcfc #000000 #000000;
#X obj 6 463 switch~;
#X obj 6 333 loadbang;
#X obj 6 423 del 1000 1 msec;
#X obj 6 441 tgl 15 0 empty empty empty 0 -8 0 8 #fcfcfc #000000 #000000 0 1;
#X obj 6 354 t b b;
#X obj 78 400 + 1000;
#X obj 62 48 s time-\$0;
#N canvas 664 113 948 545 PLAITS 0;
#X obj 6 145 +~, f 14;
#X obj 6 3 inlet;
#X obj 152 4 inlet;
#X obj 229 10 r timbre-\$0;
#X obj 250 30 r harmonics-\$0;
#X obj 261 55 r morph-\$0;
#X obj 273 74 r decay-\$0;
#X msg 39 25 model 11;
#X obj 39 3 loadbang;
#X obj 6 214 outlet~;
#X obj 152 113 plaits~ -trigger, f 27;
#X obj 6 113 plaits~ -trigger, f 27;
#X obj 6 193 *~ 0.3;
#X connect 0 0 12 0;
#X connect 1 0 11 0;
#X connect 2 0 10 0;
#X connect 3 0 10 0;
#X connect 3 0 11 0;
#X connect 4 0 10 0;
#X connect 4 0 11 0;
#X connect 5 0 10 0;
#X connect 5 0 11 0;
#X connect 6 0 10 0;
#X connect 6 0 11 0;
#X connect 7 0 10 0;
#X connect 7 0 11 0;
#X connect 8 0 7 0;
#X connect 10 0 0 1;
#X connect 11 0 0 0;
#X connect 12 0 9 0;
#X restore 5 253 pd PLAITS;
#X f 15;
#N canvas 582 93 1022 821 attack 1;
#X obj 21 220 sel 1;
#X obj 21 201 change;
#X obj 58 260 f;
#X obj 21 238 t b b b, f 8;
#X obj 21 5 inlet;
#X obj 21 342 outlet;
#X obj 138 8 inlet;
#X obj 21 32 expr if($f1 > $f2 \, 1 \, 0);
#X obj 80 53 r GLOBAL_PROBABILITY_TO_PLAY;
#X obj 68 124 nbx 5 14 -1e+37 1e+37 0 0 empty empty empty 0 -8 0 8 #fcfcfc #000000 #000000 0 256;
#X obj 21 143 spigot, f 10;
#X obj 68 80 f;
#X obj 21 53 t f b, f 10;
#X obj 80 387 s;
#X obj 120 269 r mynumber-\$0;
#X msg 120 290 symbol attack1-\$1;
#X obj 58 281 t f f;
#X obj 68 105 expr if(random(0 \, 100) > $f1 \, 0 \, 1);
#N canvas 589 136 984 827 newNote 1;
#X obj 14 366 outlet;
#X obj 14 75 t b b, f 11;
#X obj 14 231 + 16;
#X obj 66 231 + 16;
#X obj 14 256 /;
#X obj 257 180 mtof;
#X obj 14 292 *;
#X obj 14 348 nbx 5 14 -1e+37 1e+37 0 0 empty empty empty 0 -8 0 8 #fcfcfc #000000 #000000 0 256;
#X obj 14 34 t b b, f 36;
#X obj 14 2 loadbang;
#X obj 60 2 r SUBPATH-TIME-\$0;
#X obj 79 46 bng 15 250 50 0 empty empty empty 0 -8 0 8 #fcfcfc #000000 #000000;
#X obj 78 74 r DownNote;
#X obj 135 74 r UpNote;
#X obj 14 106 expr random($f2 \, $f3);
#X obj 83 144 r DownNote;
#X obj 140 144 r UpNote;
#X obj 66 182 expr random($f2 \, $f3);
#X msg 257 144 61;
#X obj 304 145 r FUNDAMENTAL_GERAL;
#X connect 1 0 14 0;
#X connect 1 1 17 0;
#X connect 2 0 4 0;
#X connect 3 0 4 1;
#X connect 4 0 6 0;
#X connect 5 0 6 1;
#X connect 6 0 7 0;
#X connect 7 0 0 0;
#X connect 8 0 1 0;
#X connect 8 1 18 0;
#X connect 9 0 8 0;
#X connect 10 0 8 0;
#X connect 11 0 1 0;
#X connect 12 0 14 1;
#X connect 13 0 14 2;
#X connect 14 0 2 0;
#X connect 15 0 17 1;
#X connect 16 0 17 2;
#X connect 17 0 3 0;
#X connect 18 0 5 0;
#X connect 19 0 5 0;
#X restore 70 238 pd newNote;
#X obj 80 336 spigot;
#X obj 127 316 r isActive-\$0;
#X connect 0 0 3 0;
#X connect 1 0 0 0;
#X connect 2 0 16 0;
#X connect 3 0 5 0;
#X connect 3 2 2 0;
#X connect 4 0 7 0;
#X connect 6 0 7 1;
#X connect 7 0 12 0;
#X connect 8 0 11 1;
#X connect 9 0 10 1;
#X connect 10 0 1 0;
#X connect 11 0 17 0;
#X connect 12 0 10 0;
#X connect 12 1 11 0;
#X connect 14 0 15 0;
#X connect 15 0 13 1;
#X connect 16 0 5 0;
#X connect 16 1 19 0;
#X connect 17 0 9 0;
#X connect 18 0 2 1;
#X connect 19 0 13 0;
#X connect 20 0 19 1;
#X restore 5 225 pd attack;
#N canvas 225 300 834 605 AZIMUTH 0;
#X obj 9 159 % 360;
#X obj 9 72 int, f 19;
#X obj 9 119 t f f;
#X obj 9 140 nbx 5 14 -1e+37 1e+37 0 0 empty empty empty 0 -8 0 8 #fcfcfc #000000 #000000 0 256;
#X obj 111 51 random 32;
#X obj 111 72 - 16;
#X obj 9 90 expr $f1 + $f2, f 21;
#X obj 9 8 inlet;
#X obj 143 13 r pd-seed-1003;
#X obj 221 13 loadbang;
#X obj 276 13 r SUBPATH-TIME-\$0;
#X obj 9 180 outlet;
#X connect 0 0 11 0;
#X connect 1 0 6 0;
#X connect 2 0 3 0;
#X connect 2 1 1 1;
#X connect 3 0 0 0;
#X connect 4 0 5 0;
#X connect 5 0 6 1;
#X connect 6 0 2 0;
#X connect 7 0 1 0;
#X connect 8 0 4 0;
#X connect 9 0 4 0;
#X connect 10 0 4 0;
#X restore 119 251 pd AZIMUTH;
#X obj 733 103 s SUBPATH-TIME-\$0;
#X obj 383 216 r SUBPATH-TIME-\$0;
#X obj 331 280 r time-\$0;
#X text 87 423 Delay for Start;
#X obj 516 307 list;
#X obj 516 347 line, f 13;
#X msg 516 327 \$2 \$1;
#X obj 568 280 * 0.01;
#X obj 568 240 bng 15 250 50 0 empty empty empty 0 -8 0 8 #fcfcfc #000000 #000000;
#X obj 568 216 r SUBPATH-TIME-\$0;
#X obj 516 280 r time-\$0;
#X obj 516 391 s harmonics-\$0;
#X msg 516 369 harmonics \$1;
#X text 766 72 PATCH TICK;
#X obj 332 95 list;
#X obj 332 135 line, f 13;
#X msg 332 115 \$2 \$1;
#X obj 384 68 * 0.01;
#X obj 384 28 bng 15 250 50 0 empty empty empty 0 -8 0 8 #fcfcfc #000000 #000000;
#X obj 384 4 r SUBPATH-TIME-\$0;
#X obj 332 68 r time-\$0;
#X msg 332 157 timbre \$1;
#X obj 332 179 s timbre-\$0;
#X obj 492 95 list;
#X obj 492 135 line, f 13;
#X msg 492 115 \$2 \$1;
#X obj 544 68 * 0.01;
#X obj 544 28 bng 15 250 50 0 empty empty empty 0 -8 0 8 #fcfcfc #000000 #000000;
#X obj 544 4 r SUBPATH-TIME-\$0;
#X obj 492 68 r time-\$0;
#X msg 492 157 morph \$1;
#X obj 492 179 s morph-\$0;
#N canvas 436 -5 976 753 attack 0;
#X obj 21 229 sel 1;
#X obj 21 210 change;
#X obj 58 269 f;
#X obj 21 247 t b b b, f 8;
#N canvas 589 136 984 827 newNote 0;
#X obj 14 366 outlet;
#X obj 14 75 t b b, f 11;
#X obj 14 231 + 16;
#X obj 66 231 + 16;
#X obj 14 256 /;
#X obj 257 180 mtof;
#X obj 14 292 *;
#X obj 14 348 nbx 5 14 -1e+37 1e+37 0 0 empty empty empty 0 -8 0 8 #fcfcfc #000000 #000000 0 256;
#X obj 14 34 t b b, f 36;
#X obj 14 2 loadbang;
#X obj 60 2 r SUBPATH-TIME-\$0;
#X obj 79 46 bng 15 250 50 0 empty empty empty 0 -8 0 8 #fcfcfc #000000 #000000;
#X obj 78 74 r DownNote;
#X obj 135 74 r UpNote;
#X obj 14 106 expr random($f2 \, $f3);
#X obj 83 144 r DownNote;
#X obj 140 144 r UpNote;
#X obj 66 182 expr random($f2 \, $f3);
#X obj 93 231 nbx 5 14 -1e+37 1e+37 0 0 empty empty empty 0 -8 0 8 #fcfcfc #000000 #000000 0 256;
#X obj 24 156 nbx 5 14 -1e+37 1e+37 0 0 empty empty empty 0 -8 0 8 #fcfcfc #000000 #000000 0 256;
#X msg 257 144 61;
#X obj 304 145 r FUNDAMENTAL_GERAL;
#X connect 1 0 14 0;
#X connect 1 1 17 0;
#X connect 2 0 4 0;
#X connect 3 0 4 1;
#X connect 4 0 6 0;
#X connect 5 0 6 1;
#X connect 6 0 7 0;
#X connect 7 0 0 0;
#X connect 8 0 1 0;
#X connect 8 1 20 0;
#X connect 9 0 8 0;
#X connect 10 0 8 0;
#X connect 11 0 1 0;
#X connect 12 0 14 1;
#X connect 13 0 14 2;
#X connect 14 0 2 0;
#X connect 14 0 19 0;
#X connect 15 0 17 1;
#X connect 16 0 17 2;
#X connect 17 0 3 0;
#X connect 17 0 18 0;
#X connect 20 0 5 0;
#X connect 21 0 5 0;
#X restore 70 247 pd newNote;
#X obj 21 5 inlet;
#X obj 21 349 outlet;
#X obj 138 8 inlet;
#X obj 80 53 r GLOBAL_PROBABILITY_TO_PLAY;
#X obj 68 126 nbx 5 14 -1e+37 1e+37 0 0 empty empty empty 0 -8 0 8 #fcfcfc #000000 #000000 0 256;
#X obj 21 145 spigot, f 10;
#X obj 68 80 f;
#X obj 21 53 t f b, f 10;
#X obj 21 32 expr if($f1 < $f2 \, 1 \, 0);
#X obj 59 349 outlet;
#X obj 97 349 s;
#X obj 130 233 r mynumber-\$0;
#X msg 130 254 symbol attack2-\$1;
#X obj 58 287 t f f;
#X obj 39 85 bng 15 250 50 0 empty empty empty 0 -8 0 8 #fcfcfc #000000 #000000;
#X obj 89 80 nbx 5 14 -1e+37 1e+37 0 0 empty empty empty 0 -8 0 8 #fcfcfc #000000 #000000 0 256;
#X obj 68 105 expr if(random(0 \, 100) > $f1 \, 0 \, 1);
#X obj 175 302 spigot;
#X obj 292 237 r isActive-\$0;
#X connect 0 0 3 0;
#X connect 1 0 0 0;
#X connect 2 0 18 0;
#X connect 3 0 6 0;
#X connect 3 1 14 0;
#X connect 3 2 2 0;
#X connect 4 0 2 1;
#X connect 5 0 13 0;
#X connect 7 0 13 1;
#X connect 8 0 11 1;
#X connect 8 0 20 0;
#X connect 9 0 10 1;
#X connect 10 0 1 0;
#X connect 11 0 21 0;
#X connect 12 0 10 0;
#X connect 12 0 19 0;
#X connect 12 1 11 0;
#X connect 13 0 12 0;
#X connect 16 0 17 0;
#X connect 17 0 15 1;
#X connect 18 0 6 0;
#X connect 18 1 22 0;
#X connect 21 0 9 0;
#X connect 22 0 15 0;
#X connect 23 0 22 1;
#X restore 77 224 pd attack;
#X obj 119 68 s pdseed-\$0;
#X obj 177 91 s fund-\$0;
#X obj 797 51 + 5000;
#X obj 5 87 * 1;
#X obj 17 67 r RESOLUTION;
#X obj 232 230 loadbang;
#X obj 232 251 expr random(-10 \, 45);
#X obj 5 25 route string time seed fund mynumber, f 58;
#X obj 234 54 s mynumber-\$0;
#X obj 5 130 spigot;
#X obj 797 30 expr random(0 \, 20000);
#X obj 114 94 loadbang;
#X msg 114 115 0;
#X obj 568 259 expr random(0 \, 98);
#X obj 383 259 expr random(0 \, 98);
#X obj 544 47 expr random(0 \, 98);
#X obj 384 47 expr random(0 \, 98);
#X obj 208 379 r mynumber-\$0;
#X obj 208 400 sel 1;
#X msg 208 421 2;
#X obj 47 463 s startnotes-\$0;
#X obj 32 94 r startnotes-\$0;
#X obj 78 379 expr random(100 \, 5000);
#X obj 164 458 s isActive-\$0;
#X connect 0 0 25 1;
#X connect 0 0 59 1;
#X connect 1 0 69 0;
#X connect 2 0 5 0;
#X connect 4 0 67 0;
#X connect 5 0 25 0;
#X connect 5 0 59 0;
#X connect 5 1 0 1;
#X connect 5 2 0 0;
#X connect 6 0 3 0;
#X connect 6 1 7 0;
#X connect 8 0 27 0;
#X connect 9 0 8 0;
#X connect 9 0 70 0;
#X connect 10 0 11 0;
#X connect 12 0 14 0;
#X connect 13 0 10 0;
#X connect 14 0 13 0;
#X connect 15 0 12 1;
#X connect 16 0 74 0;
#X connect 18 0 21 0;
#X connect 19 0 20 0;
#X connect 20 0 17 0;
#X connect 20 0 80 0;
#X connect 20 0 83 0;
#X connect 21 0 19 0;
#X connect 21 1 82 0;
#X connect 22 0 19 1;
#X connect 24 0 6 0;
#X connect 25 0 24 0;
#X connect 26 0 6 1;
#X connect 28 0 16 0;
#X connect 29 0 12 0;
#X connect 31 0 33 0;
#X connect 32 0 39 0;
#X connect 33 0 32 0;
#X connect 34 0 31 1;
#X connect 35 0 73 0;
#X connect 36 0 35 0;
#X connect 37 0 31 0;
#X connect 39 0 38 0;
#X connect 41 0 43 0;
#X connect 42 0 48 0;
#X connect 43 0 42 0;
#X connect 44 0 41 1;
#X connect 45 0 76 0;
#X connect 46 0 45 0;
#X connect 47 0 41 0;
#X connect 48 0 49 0;
#X connect 50 0 52 0;
#X connect 51 0 57 0;
#X connect 52 0 51 0;
#X connect 53 0 50 1;
#X connect 54 0 75 0;
#X connect 55 0 54 0;
#X connect 56 0 50 0;
#X connect 57 0 58 0;
#X connect 59 0 24 1;
#X connect 59 1 26 0;
#X connect 62 0 8 1;
#X connect 63 0 1 0;
#X connect 64 0 63 1;
#X connect 65 0 66 0;
#X connect 66 0 6 2;
#X connect 67 0 63 0;
#X connect 67 1 23 0;
#X connect 67 2 60 0;
#X connect 67 3 61 0;
#X connect 67 4 68 0;
#X connect 69 0 2 0;
#X connect 70 0 62 0;
#X connect 71 0 72 0;
#X connect 72 0 69 1;
#X connect 73 0 34 0;
#X connect 74 0 15 0;
#X connect 75 0 53 0;
#X connect 76 0 44 0;
#X connect 77 0 78 0;
#X connect 78 0 79 0;
#X connect 79 0 20 0;
#X connect 81 0 69 1;
#X connect 82 0 22 0;
