#N canvas 0 32 1920 977 8;
#X declare -path libs;
#X obj 9 186 loadbang;
#X obj 9 284 t b b;
#X obj 36 309 s \$0-link;
#X obj 9 335 s \$0-mass;
#X obj 26 216 bng 15 250 50 0 empty empty empty 0 -8 0 8 #fcfcfc #000000 #000000;
#N canvas 635 27 1135 890 strings 0;
#X obj 362 825 outlet;
#X obj 381 127 vsl 15 500 0 150 0 0 empty empty empty 0 -8 0 8 #fcfcfc #000000 #000000 0 1;
#X obj 399 127 vsl 15 500 0 150 0 0 empty empty empty 0 -8 0 8 #fcfcfc #000000 #000000 0 1;
#X obj 417 127 vsl 15 500 0 150 0 0 empty empty empty 0 -8 0 8 #fcfcfc #000000 #000000 0 1;
#X obj 435 127 vsl 15 500 0 150 0 0 empty empty empty 0 -8 0 8 #fcfcfc #000000 #000000 0 1;
#X obj 453 127 vsl 15 500 0 150 0 0 empty empty empty 0 -8 0 8 #fcfcfc #000000 #000000 0 1;
#X obj 471 127 vsl 15 500 0 150 0 0 empty empty empty 0 -8 0 8 #fcfcfc #000000 #000000 0 1;
#X obj 96 187 vsl 15 500 5 500 1 0 empty empty empty 0 -8 0 8 #fcfcfc #000000 #000000 0 1;
#X text 125 188 move the first slider ->;
#X text 572 247 <- or the last one;
#X obj 489 127 vsl 15 500 0 150 0 0 empty empty empty 0 -8 0 8 #fcfcfc #000000 #000000 0 1;
#X obj 235 103 inlet;
#X obj 10 75 pmpd/link \$0-link 0 0.4 1;
#X obj 147 75 pmpd/link \$0-link 3 0.9 0.9;
#X obj 285 69 pmpd/link \$0-link 3 0.9 0.9;
#X obj 426 104 pmpd/link \$0-link 3 0.9 0.9;
#X obj 567 113 pmpd/link \$0-link 3 0.9 0.9;
#X obj 705 117 pmpd/link \$0-link 3 0.9 0.9;
#X obj 846 95 pmpd/link \$0-link 3 0.9 0.9;
#X obj 426 51 pmpd/mass \$0-mass 30;
#X obj 286 50 pmpd/mass \$0-mass 20;
#X obj 148 51 pmpd/mass \$0-mass 30;
#X obj 846 36 pmpd/mass \$0-mass 40;
#X obj 705 22 pmpd/mass \$0-mass 30;
#X obj 567 51 pmpd/mass \$0-mass 20;
#X obj 1037 138 pmpd/mass \$0-mass 30;
#X obj 1020 76 pmpd/link \$0-link 0 1 1;
#X obj 489 653 t b f;
#X obj 362 804 pack f f f f f f f f, f 30;
#X obj 214 330 nbx 5 14 -1e+37 1e+37 0 0 empty empty empty 0 -8 0 8 #fcfcfc #000000 #000000 0 256;
#X obj 594 692 s ui_range1;
#X obj 607 710 s ui_range2;
#X obj 621 729 s ui_range3;
#X obj 634 747 s ui_range4;
#X obj 653 766 s ui_range5;
#X obj 667 785 s ui_range6;
#X obj 680 803 s ui_range7;
#X obj 133 762 s ui_range0;
#X connect 1 0 28 1;
#X connect 1 0 30 0;
#X connect 2 0 28 2;
#X connect 2 0 31 0;
#X connect 3 0 28 3;
#X connect 3 0 32 0;
#X connect 4 0 28 4;
#X connect 4 0 33 0;
#X connect 5 0 28 5;
#X connect 5 0 34 0;
#X connect 6 0 28 6;
#X connect 6 0 35 0;
#X connect 7 0 12 0;
#X connect 7 0 28 0;
#X connect 7 0 37 0;
#X connect 10 0 27 0;
#X connect 10 0 36 0;
#X connect 11 0 7 0;
#X connect 11 0 29 0;
#X connect 12 1 21 0;
#X connect 13 0 21 0;
#X connect 13 1 20 0;
#X connect 14 0 20 0;
#X connect 14 1 19 0;
#X connect 15 0 19 0;
#X connect 15 1 24 0;
#X connect 16 0 24 0;
#X connect 16 1 23 0;
#X connect 17 0 23 0;
#X connect 17 1 22 0;
#X connect 18 0 22 0;
#X connect 18 1 25 0;
#X connect 19 0 3 0;
#X connect 19 0 14 1;
#X connect 19 0 15 0;
#X connect 20 0 2 0;
#X connect 20 0 13 1;
#X connect 20 0 14 0;
#X connect 21 0 1 0;
#X connect 21 0 12 1;
#X connect 21 0 13 0;
#X connect 22 0 6 0;
#X connect 22 0 17 1;
#X connect 22 0 18 0;
#X connect 23 0 5 0;
#X connect 23 0 16 1;
#X connect 23 0 17 0;
#X connect 24 0 4 0;
#X connect 24 0 15 1;
#X connect 24 0 16 0;
#X connect 25 0 10 0;
#X connect 25 0 18 1;
#X connect 25 0 26 0;
#X connect 26 0 25 0;
#X connect 27 0 28 0;
#X connect 27 1 28 7;
#X connect 28 0 0 0;
#X restore 340 196 pd strings;
#X obj 340 216 unpack f f f f f f f, f 86;
#X obj 9 257 metro 10;
#X obj 500 188 nbx 5 14 -1e+37 1e+37 0 0 empty empty empty 0 -8 0 8 #fcfcfc #000000 #000000 0 256;
#X obj 500 3 loadbang;
#X obj 500 29 metro 15000;
#X obj 557 5 bng 15 250 50 0 empty empty empty 0 -8 0 8 #fcfcfc #000000 #000000;
#X obj 619 103 + 15000;
#X obj 449 73 bng 15 250 50 0 empty empty empty 0 -8 0 8 #fcfcfc #000000 #000000;
#X obj 500 49 t b b;
#X obj 182 162 random 20;
#X obj 283 214 - 10;
#X obj 181 283 pack 0 f, f 21;
#X msg 181 306 \$1 \$2;
#X obj 181 327 line, f 18;
#X obj 500 118 pack f f;
#X obj 500 91 t f f;
#X obj 500 160 line, f 9;
#X obj 619 124 nbx 5 14 -1e+37 1e+37 0 0 empty empty empty 0 -8 0 8 #fcfcfc #000000 #000000 0 256;
#X obj 339 397 dac~, f 53;
#X obj 339 369 *~ 1, f 9;
#X obj 598 369 *~ 1, f 9;
#X msg 500 139 \$1 250;
#X obj 500 70 random 100;
#X obj 107 55 loadbang;
#X msg 107 76 \; pd dsp 1;
#X obj 340 246 libs/string-abs;
#X obj 425 265 libs/string-abs;
#X obj 487 245 libs/string-abs;
#X obj 547 245 libs/string-abs;
#X obj 605 245 libs/string-abs;
#X obj 665 245 libs/string-abs;
#X obj 721 244 libs/string-abs;
#X obj 7 7 declare -path libs;
#X obj 233 16 r JSseed;
#X msg 233 51 seed \$1;
#X obj 245 106 s pdseed;
#X obj 605 22 r pdseed;
#X msg 326 19 40;
#X obj 233 72 t b a;
#X obj 619 82 random 15000;
#X connect 0 0 7 0;
#X connect 1 0 3 0;
#X connect 1 1 2 0;
#X connect 4 0 7 0;
#X connect 5 0 6 0;
#X connect 6 0 31 0;
#X connect 6 1 32 0;
#X connect 6 2 33 0;
#X connect 6 3 34 0;
#X connect 6 4 35 0;
#X connect 6 5 36 0;
#X connect 6 6 37 0;
#X connect 7 0 1 0;
#X connect 8 0 5 0;
#X connect 9 0 10 0;
#X connect 10 0 14 0;
#X connect 11 0 10 0;
#X connect 12 0 10 1;
#X connect 12 0 16 0;
#X connect 12 0 23 0;
#X connect 13 0 15 0;
#X connect 14 0 13 0;
#X connect 14 0 28 0;
#X connect 14 1 45 0;
#X connect 15 0 17 0;
#X connect 16 0 17 1;
#X connect 16 0 31 1;
#X connect 16 0 32 1;
#X connect 16 0 33 1;
#X connect 16 0 34 1;
#X connect 16 0 35 1;
#X connect 16 0 36 1;
#X connect 16 0 37 1;
#X connect 17 0 18 0;
#X connect 18 0 19 0;
#X connect 19 0 7 1;
#X connect 20 0 27 0;
#X connect 21 0 20 1;
#X connect 21 1 20 0;
#X connect 22 0 8 0;
#X connect 25 0 24 0;
#X connect 26 0 24 1;
#X connect 27 0 22 0;
#X connect 28 0 21 0;
#X connect 29 0 30 0;
#X connect 31 0 25 0;
#X connect 31 1 26 0;
#X connect 32 0 25 0;
#X connect 32 1 26 0;
#X connect 33 0 25 0;
#X connect 33 1 26 0;
#X connect 34 0 25 0;
#X connect 34 1 26 0;
#X connect 35 0 25 0;
#X connect 35 1 26 0;
#X connect 36 0 25 0;
#X connect 36 1 26 0;
#X connect 37 0 25 0;
#X connect 37 1 26 0;
#X connect 39 0 40 0;
#X connect 40 0 15 0;
#X connect 40 0 44 0;
#X connect 42 0 28 0;
#X connect 42 0 45 0;
#X connect 43 0 40 0;
#X connect 44 0 41 0;
#X connect 44 1 41 0;
#X connect 45 0 12 0;
